<svg xmlns="http://www.w3.org/2000/svg" width="520" zoomAndPan="magnify" viewBox="140 340 520 120" height="120" preserveAspectRatio="xMidYMid meet" xmlns:v="https://vecta.io/nano"><defs><clipPath id="A"><path d="M144 341h46v42h-46zm0 0" clip-rule="nonzero"/></clipPath><clipPath id="B"><path d="M143.875 359.109l43.289-18.945 14.43 32.98-43.285 18.945zm0 0" clip-rule="nonzero"/></clipPath><clipPath id="C"><path d="M143.875 359.109l43.289-18.945 14.43 32.98-43.285 18.945zm0 0" clip-rule="nonzero"/></clipPath><path id="D" d="M266.267 425.952l-.094-2.109c-.055-.395-.172-.594-.359-.594-.055 0-.277.016-.672.047l-1.625.141-1.844.172c-2.461.125-4.258.34-5.391.641-1.625.355-2.859 1.105-3.703 2.25-.836 1.137-.949 2.305-.344 3.5.719 1.5 2.289 2.242 4.719 2.219 2.426-.031 4.93-.859 7.516-2.484l1.797-1.078zm-12.859-24.75c2.156-.352 4.734-.473 7.734-.359 3.414.125 6.008.547 7.781 1.266s3.223 1.918 4.359 3.594c.844 1.324 1.398 3.07 1.672 5.234.27 2.156.461 6.445.578 12.859l.453 13.672.188 2.078-2.797.172c-1.5.188-3.031.34-4.594.453l-1.875.188v-1.531c0-1.082-.031-1.625-.094-1.625s-.996.422-2.797 1.266c-3.719 1.742-7.352 2.371-10.891 1.891-2.523-.363-4.531-1.055-6.031-2.078s-2.73-2.52-3.687-4.5c-.355-.781-.594-1.469-.719-2.062-.117-.602-.172-1.566-.172-2.891 0-1.258.055-2.203.172-2.828.125-.625.395-1.391.813-2.297.602-1.195 1.426-2.332 2.469-3.406 1.051-1.082 2.176-1.926 3.375-2.531 2.102-1.02 6.211-1.832 12.328-2.437l4.594-.437-.172-1.359c-.187-.895-.465-1.613-.828-2.156-.355-.539-.891-.988-1.609-1.344-.48-.301-1.078-.484-1.797-.547s-2.07-.062-4.047 0c-3.242 0-5.73.184-7.469.547l-1.406.172-.984.141c-.211.031-.312.016-.312-.047s-.184-1.258-.547-3.594l-.531-3.875c0-.477 2.281-1.02 6.844-1.625zm0 0"/><path id="E" d="M360.133 394.452v-12.594h9.281l-.187 18.078-.453 26.109-.266 13.859-2.062-.187a41.09 41.09 0 0 0-4.594-.266h-2.344l.188-1.625.078-1.25c0-.238-.027-.359-.078-.359-.305 0-1.117.391-2.437 1.172-1.68.961-3.195 1.621-4.547 1.984-1.344.355-2.766.531-4.266.531h-.719c-2.711 0-5.117-.391-7.219-1.172-2.094-.781-4.012-1.977-5.75-3.594-3.305-3.062-5.102-7.535-5.391-13.422a19.94 19.94 0 0 1-.094-1.891c0-5.332 1.453-9.875 4.359-13.625 2.914-3.75 7.16-5.895 12.734-6.437h1.172c1.258 0 2.758.168 4.5.5 1.738.324 3.508.938 5.313 1.844 1.613.781 2.516 1.172 2.703 1.172.051 0 .078-.148.078-.453v-.547-2.703-5.125zm-7.187 15.656c-1.023-.352-2.016-.562-2.984-.625-.961-.062-1.586-.094-1.875-.094-1.086 0-1.984.121-2.703.359-2.586.844-4.477 2.617-5.672 5.313-.543 1.324-.812 3.023-.812 5.094 0 2.063.301 3.758.906 5.078.832 2.043 2.055 3.469 3.672 4.281 1.625.805 3.281 1.203 4.969 1.203.594 0 1.672-.117 3.234-.359s3.484-1.133 5.766-2.687l1.891-1.453.172-2.422c.176-2.219.266-4.195.266-5.937 0-.238-.016-.91-.047-2.016-.023-1.113-.152-1.82-.391-2.125-.48-.539-1.398-1.172-2.75-1.891s-2.57-1.289-3.641-1.719zm0 0"/></defs><g fill="#fff"><path d="M-81-81h972v972H-81z"/><path d="M-81-81h972v972H-81z"/></g><g clip-path="url(#A)"><g clip-path="url(#B)"><g clip-path="url(#C)"><path fill="#589979" d="M185.59 341.473c-2.074.293-4.738 1.785-5.645 2.297-3.582 2.023-6.004 5.598-7.645 9.277-.57 1.273-1.062 2.578-1.559 3.879-.156.41-.727 3.922-.199 4.262-1.25-.805-3.035-2.152-3.953-2.879-1.918-1.578-4.211-2.047-6.574-2.312-1.598-.187-3.219-.168-4.82-.203-2.145-.027-4.09.785-5.977 1.609-1.449.633-2.754 1.613-4.102 2.48-.539.336-.527.84-.219 1.297.781 1.137 1.535 2.273 2.41 3.352 2.574 3.141 5.66 5.551 9.488 7.082 2.082.836 4.215 1.082 6.32 1.449 3.547.613 7.016-.09 10.359-1.305.84-.301 1.211-.07 1.617.688.863 1.652 3.152 7.859.609 9.07.48-.207 2.168 2.055 2.441.063.34-2.879.43-5.723-1.074-8.367-.422-.738-.687-1.543-1.02-2.301.66-.418 1.211-.699 1.703-1.074 1.625-1.223 3.449-2.309 4.801-3.801 2.395-2.691 4.426-5.703 5.434-9.242.465-1.59.699-3.273.887-4.934.398-3.078-.07-6.109-.758-9.086-.281-1.199-1.301-1.469-2.527-1.301zm-12.875 25.535l.992 2.27c.234.535.086.887-.469 1.051-2.656.859-5.344 1.422-8.172 1.102-.766-.086-1.578.066-2.352-.082-1.879-.34-3.773-.641-5.594-1.246-1.176-.371-2.273-1.164-3.312-1.891-2.598-1.816-4.879-3.992-6.777-6.52-.5-.684-.461-1.23.465-1.598 1.801-.719 3.512-1.66 5.348-2.254 1.191-.398 2.551-.516 3.797-.391 2.359.234 4.762.246 7.059 1.211 3.211 1.359 5.699 3.516 7.969 6.027.547.598.723 1.555 1.059 2.316zm14.055-22.84c.195.836.293 1.68.336 2.531.129 2.262.477 4.523-.043 6.77-.312 1.309-.402 2.734-.941 3.93-.805 1.781-1.82 3.484-2.953 5.102-.883 1.285-2.031 2.391-3.129 3.535-1.324 1.422-2.934 2.484-4.84 3.355-1.258-2.781-2.789-5.422-2.602-8.43.145-2.32.234-4.66 1.301-6.895 1.473-3.141 3.371-5.957 6.137-8.004 1.645-1.234 3.711-1.937 5.617-2.816.918-.445.996.414 1.117.922zm0 0"/></g></g></g><path d="M180.129 383.395l4.066-.902c.234 0 1.039 3.684 2.418 11.055l2.832 15.445 2.109 10.219c.543 2.328.852 3.492.926 3.492.176-.176 1.34-4.016 3.492-11.516l4.68-16.918c1.027-3.953 1.598-5.992 1.715-6.109.117-.129 1.707-.227 4.77-.285l4.766-.086 3.781 14.324 4.68 17.82 1.074 3.672.551-3.145c.309-1.199 1.48-6.988 3.516-17.359l3.363-16.961c.395-2.082.68-3.238.855-3.473h.199c.41 0 1.934.316 4.57.945 2.648.629 4.063 1.031 4.238 1.207 0 .367-1.141 5.949-3.426 16.746l-5.492 25.926-2.242 10.789-.352 1.449h-9.734l-3.691-12.148-5.031-17.117c-.836-3.238-1.348-4.973-1.539-5.207-.059 0-.344.715-.855 2.152-.5 1.434-1.172 3.492-2.023 6.176l-2.789 8.766-5.297 17.379h-9.734l-.352-1.449c-.422-1.742-1.551-6.941-3.383-15.602l-4.547-22.102-3.055-14.68a5.32 5.32 0 0 1-.09-.812.67.67 0 0 1 .047-.219c.027-.09.195-.191.504-.309.527-.176 2.02-.562 4.48-1.164zm86.133 42.559c0-1.023-.027-1.727-.086-2.109-.059-.395-.176-.59-.352-.59-.059 0-.285.012-.684.043l-1.625.133-1.844.176c-2.461.129-4.258.344-5.383.637-1.629.363-2.867 1.121-3.715 2.262-.836 1.129-.953 2.293-.352 3.492.719 1.512 2.293 2.25 4.723 2.223s4.938-.859 7.516-2.484l1.801-1.078zm-12.852-24.738c2.152-.367 4.73-.492 7.734-.375 3.41.117 6.004.543 7.777 1.273 1.773.719 3.23 1.914 4.371 3.582.836 1.32 1.387 3.062 1.648 5.23.277 2.152.477 6.445.594 12.875l.461 13.668.176 2.066-2.789.195a109.13 109.13 0 0 1-4.594.441l-1.891.176v-1.516c0-1.086-.027-1.629-.086-1.629s-.988.418-2.789 1.254c-3.723 1.742-7.355 2.375-10.898 1.891-2.52-.352-4.535-1.039-6.043-2.066-1.496-1.023-2.719-2.527-3.672-4.504-.363-.777-.605-1.465-.723-2.066s-.176-1.559-.176-2.879c0-1.258.059-2.203.176-2.832s.387-1.395.812-2.285c.602-1.203 1.422-2.344 2.461-3.43 1.055-1.082 2.184-1.926 3.383-2.527 2.109-1.008 6.219-1.816 12.328-2.414l4.59-.465-.176-1.34c-.176-.906-.445-1.625-.813-2.152-.352-.543-.887-.996-1.602-1.363-.484-.305-1.094-.488-1.824-.547-.719-.059-2.066-.059-4.043 0-3.238 0-5.73.184-7.473.547l-1.383.176-1.012.133c-.203.031-.309.016-.309-.043s-.184-1.254-.547-3.582l-.527-3.891c0-.469 2.285-1.004 6.855-1.602zm51.012-1.277c1.023-.176 2.02-.262 2.988-.262 1.727 0 3.734.301 6.02.902s4.203 1.703 5.758 3.316c1.258 1.391 1.992 2.93 2.195 4.613.219 1.672.387 7.004.504 15.996l.176 15.227h-9.184V426.68l-.086-12.105c-.059-1.23-.293-2.234-.703-3.012-.602-1.141-1.387-1.926-2.352-2.352-.953-.426-2.426-.637-4.418-.637-1.785 0-3.406.242-4.855.727-1.434.48-2.938 1.266-4.504 2.352l-1.691 1.074v27.004h-9.184v-39.703h9.184v4.855l1.602-1.254c2.52-1.977 5.371-3.207 8.551-3.691zm55.723-5.492v-12.59h9.273l-.176 18.082-.461 26.105-.266 13.863-2.066-.176a38.75 38.75 0 0 0-4.59-.285h-2.352l.176-1.602c.059-.543.086-.969.086-1.277 0-.234-.027-.352-.086-.352-.293 0-1.098.391-2.418 1.164-1.684.969-3.199 1.637-4.547 2-1.348.352-2.777.527-4.285.527h-.703c-2.711 0-5.113-.387-7.207-1.164-2.094-.789-4.016-1.992-5.758-3.602-3.309-3.063-5.113-7.539-5.406-13.426a21.21 21.21 0 0 1-.086-1.891c0-5.332 1.449-9.871 4.352-13.621 2.914-3.75 7.16-5.898 12.742-6.441h1.164c1.262 0 2.762.172 4.504.508 1.746.32 3.516.938 5.32 1.844 1.609.777 2.512 1.164 2.699 1.164.059 0 .09-.152.09-.461v-.527-2.703-5.141zm-7.207 15.668c-1.027-.367-2.023-.578-2.988-.637l-1.867-.09c-1.086 0-1.984.125-2.703.375-2.578.836-4.469 2.598-5.668 5.293-.543 1.32-.812 3.02-.812 5.098 0 2.066.297 3.758.898 5.078.836 2.035 2.066 3.465 3.691 4.285 1.625.805 3.273 1.207 4.945 1.207.602 0 1.676-.117 3.23-.352 1.566-.25 3.492-1.148 5.777-2.703l1.891-1.449.176-2.418c.176-2.227.262-4.211.262-5.953a96.99 96.99 0 0 0-.043-2.023c-.027-1.113-.16-1.816-.395-2.109-.484-.539-1.398-1.172-2.746-1.887s-2.566-1.289-3.648-1.715zm40.23-27.533c1.203-.309 3.508-.461 6.922-.461l5.23-.09v9.184h-4.594l-4.152.133c-.469.09-.973.375-1.516.855-.543.426-.871.867-.988 1.32-.117.438-.207 1.5-.266 3.188l-.176 3.602h12.043v9.164h-11.867l-.176 5.867c-.187 3.719-.285 8.305-.285 13.754v10.438h-9.184l.461-30.059h-9.359v-9.164h9.535l.176-4.965c.133-2.871.375-4.937.727-6.195.363-1.262 1.113-2.492 2.238-3.691.793-.777 1.562-1.379 2.309-1.805s1.723-.781 2.922-1.074zm18.004 32.211l-.176-14.48h9.359v11.777c0 7.867.117 12.371.352 13.512.25 1.129.719 2.105 1.406 2.926.687.805 1.508 1.352 2.461 1.645.719.191 1.473.289 2.262.289 1.145 0 2.563-.242 4.262-.727 1.715-.484 3.23-1.355 4.551-2.613.777-.777 1.297-1.465 1.559-2.066.277-.602.477-1.438.594-2.504.133-1.086.199-2.828.199-5.23 0-4.262.086-8.137.262-11.625l.176-5.383h9.098l-.176 14.48-.285 19.797v5.141l-9.449-.086v-4.242l-1.516 1.164c-1.742 1.32-3.574 2.219-5.492 2.703s-3.633.727-5.145.727a16.14 16.14 0 0 1-2.414-.176c-5.832-.793-9.492-3.523-10.988-8.195-.367-1.145-.594-2.492-.68-4.043-.09-1.57-.16-5.832-.219-12.789zm46.438-31.859l.266-1.078h8.746v18.809l-.285 28.98-.176 10.086h-9.187l.176-27.816.461-28.98zm0 0" fill="none" stroke="#796d3d" stroke-width="6.75"/><g fill="#f2e6b6"><path d="M180.141 383.39l4.047-.906c.238 0 1.051 3.695 2.438 11.078l2.828 15.422 2.109 10.219c.539 2.344.844 3.516.906 3.516.176-.187 1.344-4.031 3.5-11.531l4.688-16.906c1.02-3.969 1.594-6.008 1.719-6.125.113-.125 1.703-.211 4.766-.266l4.766-.094 3.781 14.313 4.688 17.813 1.078 3.688.531-3.141c.301-1.195 1.473-6.988 3.516-17.375l3.375-16.953c.383-2.07.672-3.227.859-3.469h.172c.426 0 1.957.32 4.594.953 2.633.625 4.047 1.027 4.234 1.203 0 .355-1.141 5.934-3.422 16.734l-5.5 25.922-2.25 10.797-.359 1.438h-9.719l-3.687-12.141-5.031-17.109c-.844-3.238-1.355-4.977-1.531-5.219-.062 0-.352.727-.859 2.172-.512 1.438-1.187 3.492-2.031 6.156l-2.781 8.781-5.312 17.359h-9.719l-.359-1.437c-.418-1.738-1.543-6.941-3.375-15.609l-4.547-22.094-3.062-14.672c-.062-.363-.094-.633-.094-.812a.65.65 0 0 1 .047-.219c.031-.094.195-.195.5-.312.539-.187 2.039-.578 4.5-1.172zm0 0"/><use href="#D"/><path d="M304.424 399.937a17.46 17.46 0 0 1 2.969-.266c1.75 0 3.758.305 6.031.906 2.281.594 4.203 1.703 5.766 3.328 1.258 1.375 1.992 2.906 2.203 4.594.207 1.68.375 7.016.5 16.016l.172 15.203h-9.172v-13.047l-.094-12.094c-.062-1.238-.305-2.242-.719-3.016-.605-1.145-1.387-1.926-2.344-2.344-.961-.426-2.43-.641-4.406-.641-1.805 0-3.422.246-4.859.734-1.437.48-2.937 1.258-4.5 2.328l-1.703 1.078v27h-9.187V400.03h9.188v4.859l1.609-1.25c2.52-1.977 5.367-3.211 8.547-3.703zm0 0"/><use href="#E"/></g><path d="M393.173 382.577c1.195-.301 3.504-.453 6.922-.453l5.219-.094v9.188h-4.578l-4.141.141c-.48.086-.992.367-1.531.844-.543.418-.875.855-1 1.313-.117.449-.203 1.512-.266 3.188l-.172 3.609h12.047v9.172h-11.875l-.172 5.844c-.187 3.73-.281 8.324-.281 13.781v10.438h-9.172l.453-30.062h-9.359v-9.172h9.531l.188-4.953c.113-2.883.348-4.957.703-6.219.363-1.258 1.117-2.488 2.266-3.687.781-.781 1.547-1.379 2.297-1.797s1.723-.773 2.922-1.078zm18.005 32.219l-.187-14.484h9.359v11.781c0 7.867.117 12.367.359 13.5.238 1.148.703 2.125 1.391 2.938.695.805 1.523 1.355 2.484 1.656a9.23 9.23 0 0 0 2.25.266c1.133 0 2.555-.238 4.266-.719a10.55 10.55 0 0 0 4.547-2.609c.781-.781 1.305-1.469 1.578-2.062.27-.602.461-1.441.578-2.516.125-1.082.188-2.828.188-5.234 0-4.258.086-8.129.266-11.609l.188-5.391h9.094l-.187 14.484-.266 19.797v5.125l-9.453-.078v-4.234l-1.531 1.172c-1.742 1.324-3.574 2.227-5.5 2.703-1.918.48-3.625.719-5.125.719-.836 0-1.641-.062-2.422-.187-5.824-.781-9.484-3.508-10.984-8.187-.355-1.133-.578-2.484-.672-4.047s-.168-5.82-.219-12.781zm46.43-31.859l.266-1.078h8.734v18.813l-.266 28.969-.187 10.078h-9.172l.172-27.797.453-28.984zm0 0" fill="#fff"/><path fill="none" d="M518.957 394.445v-12.59h9.273l-.176 18.082-.461 26.105-.262 13.863-2.066-.176a38.66 38.66 0 0 0-4.594-.285h-2.352l.176-1.602.09-1.277c0-.234-.031-.352-.09-.352-.293 0-1.098.391-2.414 1.164-1.687.969-3.203 1.637-4.551 2-1.348.352-2.773.527-4.285.527h-.703c-2.707 0-5.109-.387-7.207-1.164-2.094-.789-4.012-1.992-5.754-3.602-3.312-3.063-5.113-7.539-5.406-13.426a21.42 21.42 0 0 1-.09-1.891c0-5.332 1.453-9.871 4.352-13.621 2.914-3.75 7.164-5.898 12.746-6.441h1.164c1.258 0 2.762.172 4.504.508 1.742.32 3.516.938 5.316 1.844 1.613.777 2.512 1.164 2.703 1.164.059 0 .086-.152.086-.461v-.527-2.703-5.141zm-7.207 15.668a10.76 10.76 0 0 0-2.988-.637l-1.867-.09c-1.082 0-1.984.125-2.703.375-2.578.836-4.465 2.598-5.668 5.293-.543 1.32-.812 3.02-.812 5.098 0 2.066.301 3.758.902 5.078.832 2.035 2.063 3.465 3.691 4.285 1.625.805 3.273 1.207 4.941 1.207.602 0 1.68-.117 3.23-.352 1.566-.25 3.496-1.148 5.781-2.703l1.887-1.449.176-2.418c.176-2.227.266-4.211.266-5.953 0-.234-.016-.91-.043-2.023s-.164-1.816-.398-2.109c-.48-.539-1.398-1.172-2.746-1.887s-2.563-1.289-3.648-1.715zm47.969 15.84c0-1.023-.031-1.727-.09-2.109-.059-.395-.176-.59-.352-.59a13.34 13.34 0 0 0-.68.043l-1.629.133-1.844.176c-2.461.129-4.254.344-5.383.637-1.625.363-2.863 1.121-3.715 2.262-.836 1.129-.953 2.293-.352 3.492.719 1.512 2.293 2.25 4.727 2.223s4.934-.859 7.512-2.484l1.805-1.078zm-12.855-24.738c2.152-.367 4.73-.492 7.734-.375 3.414.117 6.004.543 7.777 1.273 1.773.719 3.23 1.914 4.375 3.582.832 1.32 1.383 3.062 1.645 5.23.281 2.152.477 6.445.594 12.875l.461 13.668.176 2.066-2.789.195a107.89 107.89 0 0 1-4.594.441l-1.887.176v-1.516c0-1.086-.031-1.629-.09-1.629s-.988.418-2.789 1.254c-3.723 1.742-7.355 2.375-10.898 1.891-2.52-.352-4.535-1.039-6.043-2.066-1.496-1.023-2.719-2.527-3.668-4.504-.367-.777-.609-1.465-.727-2.066s-.176-1.559-.176-2.879c0-1.258.059-2.203.176-2.832s.387-1.395.812-2.285c.602-1.203 1.422-2.344 2.461-3.43 1.055-1.082 2.184-1.926 3.383-2.527 2.109-1.008 6.219-1.816 12.328-2.414l4.594-.465-.176-1.34c-.176-.906-.449-1.625-.816-2.152-.352-.543-.883-.996-1.602-1.363-.484-.305-1.094-.488-1.824-.547-.719-.059-2.066-.059-4.043 0-3.238 0-5.727.184-7.473.547l-1.383.176-1.012.133c-.203.031-.305.016-.305-.043s-.184-1.254-.551-3.582l-.527-3.891c0-.469 2.285-1.004 6.855-1.602zm33.477.262c2.637-1.434 4.016-2.152 4.133-2.152.117.059 1.5 3.023 4.152 8.898 2.695 5.875 5.359 11.242 7.996 16.105l2.969-6.285 5.578-12.348c.543-1.434 1.07-2.613 1.582-3.535.516-.937.902-1.598 1.168-1.98.277-.395.473-.594.59-.594.484.176 1.891.809 4.219 1.891 2.344 1.086 3.547 1.715 3.605 1.891 0 .543-3.078 7.191-9.23 19.949-6.152 12.746-10.09 20.613-11.82 23.602-.789 1.258-1.758 2.504-2.898 3.734-1.129 1.23-2.207 2.145-3.23 2.746-1.918 1.027-4.41 1.539-7.473 1.539h-2.527v-9.359h1.539c.969 0 2.082-.215 3.34-.641 1.129-.352 2.051-.965 2.77-1.844.73-.863 1.699-2.527 2.898-4.988l1.605-3.602-.703-1.344c-.602-1.141-3.129-6.305-7.582-15.488l-6.656-13.953c0-.234 1.324-.98 3.977-2.242zm50.938-1.074c1.199-.191 2.547-.301 4.043-.332l2.789-.043c2.227 0 4.27.094 6.133.285l3.227.176-.176 7.559-7.559.09c-3.602 0-5.828.059-6.68.176-.832.117-1.484.355-1.953.723-.719.543-1.078 1.23-1.078 2.066a2.22 2.22 0 0 0 1.164 2.043c.777.441 2.543 1.047 5.297 1.824 2.652.719 4.652 1.441 6 2.176 1.348.719 2.504 1.551 3.469 2.504 1.129 1.203 1.922 2.387 2.375 3.559s.68 2.688.68 4.551c-.059 2.871-.703 5.258-1.934 7.16-1.23 1.891-3.164 3.34-5.801 4.352-.906.309-1.832.508-2.77.594-.922.09-2.641.133-5.16.133-2.402 0-4.191-.074-5.363-.219-1.156-.164-2.547-.418-4.176-.77-2.52-.543-3.777-.93-3.777-1.164 0-.191.219-1.48.66-3.867l.766-3.805h.113c.234 0 1.281.242 3.141.727 3.66.719 6.656 1.078 8.988 1.078.73 0 1.887-.09 3.469-.266 1.598-.176 2.453-1.164 2.57-2.965v-.461c0-1.07-.437-1.906-1.316-2.508-.863-.598-2.77-1.289-5.715-2.062-5.391-1.453-8.773-3.164-10.148-5.145-1.027-1.375-1.598-2.695-1.715-3.953s-.176-2.102-.176-2.527c0-1.684.359-3.305 1.078-4.855.715-1.684 1.938-3.156 3.668-4.418 1.742-1.258 3.699-2.062 5.867-2.414zm0 0" stroke="#796d3d" stroke-width="6.75"/><g fill="#fff"><use href="#E" x="158.814"/><use href="#D" x="293.454"/><path d="M580.331 401.468l4.141-2.156c.125.063 1.504 3.031 4.141 8.906 2.695 5.887 5.367 11.258 8.016 16.109l2.969-6.297 5.578-12.328c.539-1.437 1.066-2.617 1.578-3.547.508-.937.898-1.598 1.172-1.984.27-.395.461-.594.578-.594.477.188 1.883.824 4.219 1.906 2.344 1.074 3.547 1.699 3.609 1.875 0 .543-3.078 7.188-9.234 19.938-6.148 12.75-10.09 20.625-11.828 23.625-.781 1.258-1.742 2.504-2.875 3.734s-2.215 2.145-3.234 2.75c-1.93 1.02-4.418 1.531-7.469 1.531h-2.531v-9.359h1.531c.957 0 2.066-.215 3.328-.641 1.145-.355 2.078-.969 2.797-1.844.719-.863 1.676-2.523 2.875-4.984l1.625-3.609-.719-1.344c-.605-1.145-3.125-6.305-7.562-15.484l-6.656-13.953c0-.238 1.316-.988 3.953-2.25zm50.946-1.078c1.195-.176 2.547-.281 4.047-.312l2.797-.047 6.109.281 3.25.172-.187 7.563-7.562.094-6.656.188c-.844.117-1.508.352-1.984.703-.719.543-1.078 1.234-1.078 2.078 0 .898.391 1.574 1.172 2.031.781.449 2.551 1.059 5.313 1.828 2.633.73 4.629 1.453 5.984 2.172s2.508 1.559 3.469 2.516c1.133 1.199 1.926 2.387 2.375 3.563.457 1.168.688 2.68.688 4.531-.062 2.887-.711 5.277-1.937 7.172-1.23 1.887-3.168 3.34-5.812 4.359-.898.293-1.812.484-2.75.578-.93.094-2.652.141-5.172.141-2.398 0-4.184-.07-5.359-.219-1.168-.156-2.559-.414-4.172-.781-2.523-.539-3.781-.93-3.781-1.172 0-.176.223-1.461.672-3.859l.766-3.781h.094c.238 0 1.285.242 3.141.719 3.664.719 6.664 1.078 9 1.078.719 0 1.875-.086 3.469-.266 1.594-.187 2.445-1.176 2.563-2.969v-.453c0-1.082-.437-1.922-1.312-2.516-.867-.602-2.766-1.297-5.703-2.078-5.398-1.437-8.789-3.145-10.172-5.125-1.023-1.383-1.594-2.707-1.719-3.969-.117-1.258-.172-2.098-.172-2.516a11.5 11.5 0 0 1 1.078-4.859c.719-1.676 1.945-3.145 3.688-4.406a13.78 13.78 0 0 1 5.859-2.437zm0 0"/></g></svg>