<svg xmlns="http://www.w3.org/2000/svg" xmlns:xlink="http://www.w3.org/1999/xlink" width="520" zoomAndPan="magnify" viewBox="140 340 520 120" height="120" preserveAspectRatio="xMidYMid meet" version="1.0"><defs><g/><clipPath id="2e509f234f"><path d="M 144 341 L 190 341 L 190 383 L 144 383 Z M 144 341 " clip-rule="nonzero"/></clipPath><clipPath id="837ff7c689"><path d="M 143.875 359.109375 L 187.164062 340.164062 L 201.59375 373.144531 L 158.308594 392.089844 Z M 143.875 359.109375 " clip-rule="nonzero"/></clipPath><clipPath id="4571812202"><path d="M 143.875 359.109375 L 187.164062 340.164062 L 201.59375 373.144531 L 158.308594 392.089844 Z M 143.875 359.109375 " clip-rule="nonzero"/></clipPath></defs><rect x="-81" width="972" fill="#ffffff" y="-80.999999" height="971.999992" fill-opacity="1"/><rect x="-81" width="972" fill="#ffffff" y="-80.999999" height="971.999992" fill-opacity="1"/><g clip-path="url(#2e509f234f)"><g clip-path="url(#837ff7c689)"><g clip-path="url(#4571812202)"><path fill="#589979" d="M 185.589844 341.472656 C 183.515625 341.765625 180.851562 343.257812 179.945312 343.769531 C 176.363281 345.792969 173.941406 349.367188 172.300781 353.046875 C 171.730469 354.320312 171.238281 355.625 170.742188 356.925781 C 170.585938 357.335938 170.015625 360.847656 170.542969 361.1875 C 169.292969 360.382812 167.507812 359.035156 166.589844 358.308594 C 164.671875 356.730469 162.378906 356.261719 160.015625 355.996094 C 158.417969 355.808594 156.796875 355.828125 155.195312 355.792969 C 153.050781 355.765625 151.105469 356.578125 149.21875 357.402344 C 147.769531 358.035156 146.464844 359.015625 145.117188 359.882812 C 144.578125 360.21875 144.589844 360.722656 144.898438 361.179688 C 145.679688 362.316406 146.433594 363.453125 147.308594 364.53125 C 149.882812 367.671875 152.96875 370.082031 156.796875 371.613281 C 158.878906 372.449219 161.011719 372.695312 163.117188 373.0625 C 166.664062 373.675781 170.132812 372.972656 173.476562 371.757812 C 174.316406 371.457031 174.6875 371.6875 175.09375 372.445312 C 175.957031 374.097656 178.246094 380.304688 175.703125 381.515625 C 176.183594 381.308594 177.871094 383.570312 178.144531 381.578125 C 178.484375 378.699219 178.574219 375.855469 177.070312 373.210938 C 176.648438 372.472656 176.382812 371.667969 176.050781 370.910156 C 176.710938 370.492188 177.261719 370.210938 177.753906 369.835938 C 179.378906 368.613281 181.203125 367.527344 182.554688 366.035156 C 184.949219 363.34375 186.980469 360.332031 187.988281 356.792969 C 188.453125 355.203125 188.6875 353.519531 188.875 351.859375 C 189.273438 348.78125 188.804688 345.75 188.117188 342.773438 C 187.835938 341.574219 186.816406 341.304688 185.589844 341.472656 Z M 172.714844 367.007812 C 173.050781 367.777344 173.378906 368.527344 173.707031 369.277344 C 173.941406 369.8125 173.792969 370.164062 173.238281 370.328125 C 170.582031 371.1875 167.894531 371.75 165.066406 371.429688 C 164.300781 371.34375 163.488281 371.496094 162.714844 371.347656 C 160.835938 371.007812 158.941406 370.707031 157.121094 370.101562 C 155.945312 369.730469 154.847656 368.9375 153.808594 368.210938 C 151.210938 366.394531 148.929688 364.21875 147.03125 361.691406 C 146.53125 361.007812 146.570312 360.460938 147.496094 360.09375 C 149.296875 359.375 151.007812 358.433594 152.84375 357.839844 C 154.035156 357.441406 155.394531 357.324219 156.640625 357.449219 C 159 357.683594 161.402344 357.695312 163.699219 358.660156 C 166.910156 360.019531 169.398438 362.175781 171.667969 364.6875 C 172.214844 365.285156 172.390625 366.242188 172.726562 367.003906 C 172.726562 367.003906 172.726562 367.003906 172.714844 367.007812 Z M 186.769531 344.167969 C 186.964844 345.003906 187.0625 345.847656 187.105469 346.699219 C 187.234375 348.960938 187.582031 351.222656 187.0625 353.46875 C 186.75 354.777344 186.660156 356.203125 186.121094 357.398438 C 185.316406 359.179688 184.300781 360.882812 183.167969 362.5 C 182.285156 363.785156 181.136719 364.890625 180.039062 366.035156 C 178.714844 367.457031 177.105469 368.519531 175.199219 369.390625 C 173.941406 366.609375 172.410156 363.96875 172.597656 360.960938 C 172.742188 358.640625 172.832031 356.300781 173.898438 354.066406 C 175.371094 350.925781 177.269531 348.109375 180.035156 346.0625 C 181.679688 344.828125 183.746094 344.125 185.652344 343.246094 C 186.570312 342.800781 186.648438 343.660156 186.769531 344.167969 Z M 186.769531 344.167969 " fill-opacity="1" fill-rule="nonzero"/></g></g></g><path stroke-linecap="butt" transform="matrix(0.75, 0, 0, 0.75, 165.004536, 352.873802)" fill="none" stroke-linejoin="miter" d="M 20.165828 40.694307 C 23.447078 39.892224 25.25437 39.491182 25.587703 39.491182 C 25.900203 39.491182 26.97312 44.402641 28.811662 54.230766 C 30.176245 62.0016 31.436662 68.866184 32.587704 74.824517 C 33.759579 80.782851 34.697079 85.324518 35.400204 88.449518 C 36.124162 91.553685 36.535621 93.105768 36.634579 93.105768 C 36.868954 92.871393 38.421037 87.751601 41.290829 77.751601 C 44.181454 67.7516 46.259579 60.235975 47.530413 55.194308 C 48.900204 49.923475 49.660621 47.204724 49.816871 47.048474 C 49.973121 46.876599 52.092913 46.746391 56.176246 46.668266 L 62.530413 46.553683 L 67.57208 65.652642 C 69.738747 73.798476 71.816872 81.720351 73.811664 89.41306 L 75.243956 94.308893 L 75.978331 90.116185 C 76.389789 88.517226 77.952289 80.798476 80.665831 66.97035 C 83.144998 54.647433 84.63979 47.110974 85.150206 44.355766 C 85.676248 41.579724 86.056456 40.038057 86.290831 39.725557 C 86.290831 39.725557 86.379373 39.725557 86.556456 39.725557 C 87.103331 39.725557 89.134581 40.147432 92.650207 40.985974 C 96.181457 41.824516 98.066874 42.360974 98.301249 42.595349 C 98.301249 43.084933 96.780415 50.527641 93.73354 64.923475 C 89.103331 86.834935 86.660623 98.360977 86.410623 99.491185 C 84.493956 108.689102 83.499165 113.485978 83.42104 113.876603 L 82.95229 115.808894 L 69.973122 115.808894 L 65.051247 99.610977 C 61.848122 89.043268 59.613747 81.433893 58.342913 76.788059 C 57.22833 72.470351 56.546038 70.157851 56.29083 69.845351 C 56.212705 69.845351 55.832496 70.798476 55.150205 72.715142 C 54.483538 74.626601 53.587705 77.371393 52.452288 80.949518 C 51.337705 84.501601 50.098121 88.397435 48.733538 92.637018 L 41.671037 115.808894 L 28.69187 115.808894 L 28.22312 113.876603 C 27.66062 111.553686 26.155412 104.621394 23.712703 93.074518 C 21.269995 81.512018 19.249161 71.689101 17.650203 63.605767 C 15.165828 51.512016 13.811661 44.991183 13.577286 44.032849 C 13.499161 43.564099 13.457494 43.204724 13.457494 42.949516 C 13.457494 42.871391 13.478328 42.772432 13.519994 42.657849 C 13.556453 42.538057 13.780411 42.402641 14.191869 42.246391 C 14.894994 42.012016 16.884578 41.496391 20.165828 40.694307 Z M 135.009584 97.439102 C 135.009584 96.074519 134.973125 95.137018 134.895 94.626602 C 134.816875 94.10056 134.660625 93.840143 134.42625 93.840143 C 134.348125 93.840143 134.046042 93.855768 133.514792 93.897435 C 132.98875 93.933893 132.264792 93.996393 131.348125 94.074518 C 130.431459 94.152643 129.608542 94.230768 128.889792 94.308893 C 125.608542 94.480768 123.212708 94.767227 121.712708 95.157852 C 119.540833 95.642227 117.889791 96.652644 116.759583 98.173477 C 115.644999 99.678685 115.488749 101.230769 116.290833 102.829727 C 117.249166 104.845352 119.348125 105.829727 122.587708 105.793269 C 125.8325 105.751602 129.171042 104.647436 132.608542 102.480769 L 135.009584 101.043269 Z M 117.874166 64.454725 C 120.743958 63.965142 124.181458 63.798475 128.186667 63.954725 C 132.733542 64.110975 136.191876 64.678684 138.556459 65.652642 C 140.921042 66.610975 142.863751 68.204725 144.384584 70.428684 C 145.499168 72.189101 146.233543 74.512017 146.582501 77.402643 C 146.952293 80.272434 147.217918 85.996393 147.374168 94.56931 C 147.608543 104.491186 147.811668 110.564103 147.988751 112.793269 L 148.223126 115.548478 L 144.504376 115.808894 C 142.509584 116.04327 140.467917 116.241186 138.379376 116.397436 L 135.858542 116.631811 L 135.858542 114.610978 C 135.858542 113.163061 135.822084 112.439103 135.743959 112.439103 C 135.665834 112.439103 134.42625 112.996394 132.025209 114.110978 C 127.061667 116.433895 122.217916 117.277645 117.493958 116.631811 C 114.134583 116.163061 111.447083 115.246394 109.436666 113.876603 C 107.441874 112.512019 105.811666 110.506811 104.540832 107.871394 C 104.056457 106.834936 103.733541 105.918269 103.577291 105.116186 C 103.421041 104.314102 103.342916 103.038061 103.342916 101.277644 C 103.342916 99.60056 103.421041 98.340144 103.577291 97.501602 C 103.733541 96.657852 104.092916 95.642227 104.660624 94.454727 C 105.462707 92.85056 106.556457 91.329727 107.941874 89.88181 C 109.348124 88.439101 110.853333 87.314101 112.452291 86.512018 C 115.264791 85.168268 120.743958 84.090143 128.889792 83.293268 L 135.009584 82.673476 L 134.775209 80.887018 C 134.540834 79.678684 134.181459 78.720351 133.691875 78.017226 C 133.223125 77.293268 132.509584 76.689101 131.556459 76.199518 C 130.910625 75.793267 130.098125 75.548476 129.124167 75.470351 C 128.165833 75.392226 126.368958 75.392226 123.733542 75.470351 C 119.415833 75.470351 116.092916 75.715142 113.769999 76.199518 C 113.144999 76.277643 112.530416 76.355768 111.926249 76.433893 C 111.322083 76.512018 110.868958 76.574518 110.577291 76.610976 C 110.306458 76.652643 110.165833 76.631809 110.165833 76.553684 C 110.165833 76.475559 109.921041 74.881809 109.436666 71.777642 C 108.967916 68.652642 108.733541 66.923475 108.733541 66.590142 C 108.733541 65.965142 111.780416 65.2516 117.874166 64.454725 Z M 185.889795 62.7516 C 187.254378 62.517225 188.582503 62.402642 189.87417 62.402642 C 192.176253 62.402642 194.853337 62.803683 197.900212 63.605767 C 200.947087 64.402642 203.504379 65.8766 205.577296 68.027642 C 207.254379 69.881809 208.233546 71.933892 208.504379 74.178684 C 208.796046 76.407851 209.020004 83.517226 209.176254 95.50681 L 209.410629 115.808894 L 197.165837 115.808894 L 197.165837 98.407852 C 197.165837 89.28806 197.129379 83.907851 197.051254 82.267226 C 196.973129 80.626601 196.660629 79.288059 196.113754 78.251601 C 195.31167 76.730768 194.264795 75.683892 192.978337 75.116184 C 191.707503 74.548476 189.743962 74.267226 187.087711 74.267226 C 184.707503 74.267226 182.546045 74.590142 180.613753 75.235976 C 178.702294 75.876601 176.697086 76.923476 174.608544 78.371393 L 172.353336 79.803684 L 172.353336 115.808894 L 160.108543 115.808894 L 160.108543 62.871392 L 172.353336 62.871392 L 172.353336 69.34535 L 174.488752 67.673475 C 177.848128 65.038059 181.650211 63.397434 185.889795 62.7516 Z M 260.186673 55.428683 L 260.186673 38.642224 L 272.551257 38.642224 L 272.316882 62.7516 C 272.139799 74.845351 271.936674 86.44431 271.702299 97.558894 L 271.348132 116.04327 L 268.592924 115.808894 C 266.504382 115.558894 264.462715 115.428686 262.473132 115.428686 L 259.337715 115.428686 L 259.57209 113.293269 C 259.650215 112.569311 259.686673 112.001603 259.686673 111.590144 C 259.686673 111.277644 259.650215 111.121394 259.57209 111.121394 C 259.181465 111.121394 258.108548 111.642228 256.348132 112.673478 C 254.10334 113.965144 252.082506 114.855769 250.285631 115.340144 C 248.488756 115.808894 246.582506 116.04327 244.572089 116.04327 C 244.259589 116.04327 243.947089 116.04327 243.634589 116.04327 C 240.020006 116.04327 236.816881 115.527644 234.025214 114.491186 C 231.233547 113.439103 228.671047 111.834936 226.34813 109.689103 C 221.936672 105.605769 219.530421 99.637019 219.139796 91.78806 C 219.061671 90.907852 219.025213 90.06931 219.025213 89.267226 C 219.025213 82.157851 220.957505 76.105767 224.827297 71.105767 C 228.712714 66.105767 234.374172 63.241184 241.816881 62.517225 C 242.306464 62.517225 242.822089 62.517225 243.368964 62.517225 C 245.051256 62.517225 247.051256 62.746392 249.374173 63.194309 C 251.702298 63.621392 254.061673 64.444309 256.467923 65.652642 C 258.613757 66.6891 259.816882 67.204725 260.066882 67.204725 C 260.145007 67.204725 260.186673 67.0016 260.186673 66.590142 C 260.186673 66.433892 260.186673 66.199517 260.186673 65.887017 C 260.186673 65.168267 260.186673 63.965142 260.186673 62.28285 C 260.186673 60.527642 260.186673 58.241183 260.186673 55.428683 Z M 250.577298 76.319309 C 249.207506 75.829726 247.879381 75.548476 246.592923 75.470351 C 245.322089 75.392226 244.493964 75.350559 244.103339 75.350559 C 242.655423 75.350559 241.457506 75.517226 240.499172 75.850559 C 237.061672 76.965143 234.540839 79.314101 232.94188 82.907851 C 232.217922 84.668268 231.858547 86.933893 231.858547 89.704727 C 231.858547 92.459935 232.25438 94.715143 233.056464 96.47556 C 234.171047 99.189102 235.811672 101.095352 237.978339 102.189102 C 240.145006 103.262019 242.342923 103.798477 244.572089 103.798477 C 245.374173 103.798477 246.806464 103.642227 248.879381 103.329727 C 250.967923 102.996394 253.535631 101.798477 256.582507 99.72556 L 259.10334 97.793269 L 259.337715 94.56931 C 259.57209 91.60056 259.686673 88.954726 259.686673 86.63181 C 259.686673 86.31931 259.671048 85.418268 259.629382 83.933893 C 259.592923 82.449518 259.41584 81.512018 259.10334 81.121393 C 258.457507 80.402643 257.238757 79.558893 255.441882 78.605768 C 253.645006 77.647434 252.020006 76.887018 250.577298 76.319309 Z M 250.577298 76.319309 " stroke="#796d3d" stroke-width="9" stroke-opacity="1" stroke-miterlimit="4"/><path stroke-linecap="butt" transform="matrix(0.75, 0, 0, 0.75, 165.004536, 352.873802)" fill="none" stroke-linejoin="miter" d="M 304.217926 39.610974 C 305.822092 39.199516 308.895009 38.996391 313.447093 38.996391 L 320.421051 38.876599 L 320.421051 51.121391 L 314.296051 51.121391 C 311.249176 51.121391 309.405426 51.183891 308.759593 51.298475 C 308.134593 51.418266 307.462717 51.798475 306.738759 52.4391 C 306.014801 53.006808 305.577301 53.59535 305.421051 54.199516 C 305.264801 54.78285 305.145009 56.199516 305.066884 58.449517 L 304.832509 63.2516 L 320.889801 63.2516 L 320.889801 75.470351 L 305.066884 75.470351 L 304.832509 83.293268 C 304.582509 88.251601 304.452301 94.366185 304.452301 101.63181 L 304.452301 115.548478 L 292.207508 115.548478 L 292.822092 75.470351 L 280.342924 75.470351 L 280.342924 63.2516 L 293.056467 63.2516 L 293.290842 56.631808 C 293.467925 52.803683 293.790842 50.048475 294.259592 48.371391 C 294.743967 46.689099 295.743967 45.048474 297.243967 43.449516 C 298.301259 42.413057 299.3273 41.610974 300.322092 41.043266 C 301.316884 40.480766 302.618967 40.001599 304.217926 39.610974 Z M 328.223135 82.558893 L 327.98876 63.2516 L 340.467927 63.2516 L 340.467927 78.954726 C 340.467927 89.44431 340.624177 95.449518 340.936677 96.970352 C 341.270011 98.47556 341.895011 99.777644 342.811678 100.871394 C 343.728344 101.94431 344.822094 102.673477 346.092928 103.064102 C 347.051261 103.319311 348.05647 103.449519 349.108553 103.449519 C 350.634595 103.449519 352.52522 103.126602 354.790845 102.480769 C 357.077303 101.834935 359.098137 100.673477 360.858553 98.996394 C 361.895012 97.959935 362.58772 97.043269 362.936679 96.241185 C 363.30647 95.439102 363.572095 94.324518 363.728345 92.902643 C 363.905429 91.454727 363.99397 89.13181 363.99397 85.928685 C 363.99397 80.246393 364.108554 75.079726 364.342929 70.428684 L 364.577304 63.2516 L 376.707513 63.2516 L 376.473138 82.558893 C 376.217929 94.88181 376.092929 103.683894 376.092929 108.954727 L 376.092929 115.808894 L 363.49397 115.694311 L 363.49397 110.038061 L 361.473137 111.590144 C 359.15022 113.350561 356.707512 114.548478 354.15022 115.194311 C 351.58772 115.840144 349.30647 116.163061 347.290844 116.163061 C 346.181469 116.163061 345.103344 116.084936 344.072094 115.928686 C 336.296052 114.871394 331.415844 111.230769 329.421052 105.001602 C 328.931469 103.475561 328.629385 101.678685 328.514802 99.610977 C 328.39501 97.517227 328.30126 91.834935 328.223135 82.558893 Z M 390.139805 40.079724 L 390.493972 38.642224 L 402.155431 38.642224 L 402.155431 63.72035 C 402.155431 81.084934 402.025222 93.965143 401.775222 102.360977 L 401.540847 115.808894 L 389.290847 115.808894 L 389.525222 78.720351 C 389.702305 53.840141 389.90543 40.954724 390.139805 40.079724 Z M 390.139805 40.079724 " stroke="#796d3d" stroke-width="9" stroke-opacity="1" stroke-miterlimit="4"/><g fill="#f2e6b6" fill-opacity="1"><g transform="translate(174.110004, 442.873798)"><g><path d="M 6.03125 -59.484375 C 8.488281 -60.085938 9.835938 -60.390625 10.078125 -60.390625 C 10.316406 -60.390625 11.128906 -56.695312 12.515625 -49.3125 C 13.535156 -43.5 14.476562 -38.359375 15.34375 -33.890625 C 16.21875 -29.421875 16.921875 -26.015625 17.453125 -23.671875 C 17.992188 -21.328125 18.296875 -20.15625 18.359375 -20.15625 C 18.535156 -20.34375 19.703125 -24.1875 21.859375 -31.6875 C 24.023438 -39.1875 25.585938 -44.820312 26.546875 -48.59375 C 27.566406 -52.5625 28.140625 -54.601562 28.265625 -54.71875 C 28.378906 -54.84375 29.96875 -54.929688 33.03125 -54.984375 L 37.796875 -55.078125 L 41.578125 -40.765625 C 43.203125 -34.648438 44.765625 -28.710938 46.265625 -22.953125 L 47.34375 -19.265625 L 47.875 -22.40625 C 48.175781 -23.601562 49.347656 -29.394531 51.390625 -39.78125 C 53.253906 -49.019531 54.378906 -54.671875 54.765625 -56.734375 C 55.148438 -58.804688 55.4375 -59.960938 55.625 -60.203125 C 55.625 -60.203125 55.679688 -60.203125 55.796875 -60.203125 C 56.222656 -60.203125 57.753906 -59.882812 60.390625 -59.25 C 63.023438 -58.625 64.4375 -58.222656 64.625 -58.046875 C 64.625 -57.691406 63.484375 -52.113281 61.203125 -41.3125 C 57.722656 -24.875 55.890625 -16.234375 55.703125 -15.390625 C 54.265625 -8.492188 53.515625 -4.894531 53.453125 -4.59375 L 53.09375 -3.15625 L 43.375 -3.15625 L 39.6875 -15.296875 C 37.289062 -23.222656 35.613281 -28.925781 34.65625 -32.40625 C 33.8125 -35.644531 33.300781 -37.382812 33.125 -37.625 C 33.0625 -37.625 32.773438 -36.898438 32.265625 -35.453125 C 31.753906 -34.015625 31.078125 -31.960938 30.234375 -29.296875 C 29.398438 -26.628906 28.472656 -23.703125 27.453125 -20.515625 L 22.140625 -3.15625 L 12.421875 -3.15625 L 12.0625 -4.59375 C 11.644531 -6.332031 10.519531 -11.535156 8.6875 -20.203125 C 6.851562 -28.867188 5.335938 -36.234375 4.140625 -42.296875 C 2.273438 -51.359375 1.253906 -56.25 1.078125 -56.96875 C 1.015625 -57.332031 0.984375 -57.601562 0.984375 -57.78125 C 0.984375 -57.84375 1 -57.914062 1.03125 -58 C 1.0625 -58.09375 1.226562 -58.195312 1.53125 -58.3125 C 2.070312 -58.5 3.570312 -58.890625 6.03125 -59.484375 Z M 6.03125 -59.484375 "/></g></g></g><g fill="#f2e6b6" fill-opacity="1"><g transform="translate(239.71994, 442.873798)"><g><path d="M 26.546875 -16.921875 C 26.546875 -17.941406 26.515625 -18.644531 26.453125 -19.03125 C 26.398438 -19.425781 26.28125 -19.625 26.09375 -19.625 C 26.039062 -19.625 25.816406 -19.609375 25.421875 -19.578125 C 25.035156 -19.546875 24.492188 -19.5 23.796875 -19.4375 C 23.109375 -19.375 22.492188 -19.316406 21.953125 -19.265625 C 19.492188 -19.140625 17.695312 -18.925781 16.5625 -18.625 C 14.9375 -18.269531 13.703125 -17.519531 12.859375 -16.375 C 12.023438 -15.238281 11.910156 -14.070312 12.515625 -12.875 C 13.234375 -11.375 14.804688 -10.632812 17.234375 -10.65625 C 19.660156 -10.6875 22.164062 -11.515625 24.75 -13.140625 L 26.546875 -14.21875 Z M 13.6875 -41.671875 C 15.84375 -42.023438 18.421875 -42.144531 21.421875 -42.03125 C 24.835938 -41.90625 27.429688 -41.484375 29.203125 -40.765625 C 30.972656 -40.046875 32.425781 -38.847656 33.5625 -37.171875 C 34.40625 -35.847656 34.960938 -34.101562 35.234375 -31.9375 C 35.503906 -29.78125 35.695312 -25.492188 35.8125 -19.078125 C 36 -11.640625 36.148438 -7.082031 36.265625 -5.40625 L 36.453125 -3.328125 L 33.65625 -3.15625 C 32.15625 -2.96875 30.625 -2.816406 29.0625 -2.703125 L 27.1875 -2.515625 L 27.1875 -4.046875 C 27.1875 -5.128906 27.15625 -5.671875 27.09375 -5.671875 C 27.03125 -5.671875 26.097656 -5.25 24.296875 -4.40625 C 20.578125 -2.664062 16.945312 -2.035156 13.40625 -2.515625 C 10.882812 -2.878906 8.875 -3.570312 7.375 -4.59375 C 5.875 -5.613281 4.644531 -7.113281 3.6875 -9.09375 C 3.332031 -9.875 3.09375 -10.5625 2.96875 -11.15625 C 2.851562 -11.757812 2.796875 -12.722656 2.796875 -14.046875 C 2.796875 -15.304688 2.851562 -16.25 2.96875 -16.875 C 3.09375 -17.5 3.363281 -18.265625 3.78125 -19.171875 C 4.382812 -20.367188 5.207031 -21.503906 6.25 -22.578125 C 7.300781 -23.660156 8.425781 -24.503906 9.625 -25.109375 C 11.726562 -26.128906 15.835938 -26.941406 21.953125 -27.546875 L 26.546875 -27.984375 L 26.375 -29.34375 C 26.1875 -30.238281 25.910156 -30.957031 25.546875 -31.5 C 25.191406 -32.039062 24.65625 -32.488281 23.9375 -32.84375 C 23.457031 -33.144531 22.859375 -33.328125 22.140625 -33.390625 C 21.421875 -33.453125 20.070312 -33.453125 18.09375 -33.390625 C 14.851562 -33.390625 12.363281 -33.207031 10.625 -32.84375 C 10.144531 -32.789062 9.675781 -32.734375 9.21875 -32.671875 C 8.769531 -32.609375 8.441406 -32.5625 8.234375 -32.53125 C 8.023438 -32.5 7.921875 -32.515625 7.921875 -32.578125 C 7.921875 -32.640625 7.738281 -33.835938 7.375 -36.171875 C 7.019531 -38.515625 6.84375 -39.804688 6.84375 -40.046875 C 6.84375 -40.523438 9.125 -41.066406 13.6875 -41.671875 Z M 13.6875 -41.671875 "/></g></g></g><g fill="#f2e6b6" fill-opacity="1"><g transform="translate(280.579901, 442.873798)"><g><path d="M 23.84375 -42.9375 C 24.863281 -43.113281 25.851562 -43.203125 26.8125 -43.203125 C 28.5625 -43.203125 30.570312 -42.898438 32.84375 -42.296875 C 35.125 -41.703125 37.046875 -40.59375 38.609375 -38.96875 C 39.867188 -37.59375 40.601562 -36.0625 40.8125 -34.375 C 41.019531 -32.695312 41.1875 -27.359375 41.3125 -18.359375 L 41.484375 -3.15625 L 32.3125 -3.15625 L 32.3125 -16.203125 C 32.3125 -23.035156 32.28125 -27.066406 32.21875 -28.296875 C 32.15625 -29.535156 31.914062 -30.539062 31.5 -31.3125 C 30.894531 -32.457031 30.113281 -33.238281 29.15625 -33.65625 C 28.195312 -34.082031 26.726562 -34.296875 24.75 -34.296875 C 22.945312 -34.296875 21.328125 -34.050781 19.890625 -33.5625 C 18.453125 -33.082031 16.953125 -32.304688 15.390625 -31.234375 L 13.6875 -30.15625 L 13.6875 -3.15625 L 4.5 -3.15625 L 4.5 -42.84375 L 13.6875 -42.84375 L 13.6875 -37.984375 L 15.296875 -39.234375 C 17.816406 -41.210938 20.664062 -42.445312 23.84375 -42.9375 Z M 23.84375 -42.9375 "/></g></g></g><g fill="#f2e6b6" fill-opacity="1"><g transform="translate(326.569858, 442.873798)"><g><path d="M 33.5625 -48.421875 L 33.5625 -61.015625 L 42.84375 -61.015625 L 42.65625 -42.9375 C 42.539062 -33.875 42.390625 -25.171875 42.203125 -16.828125 L 41.9375 -2.96875 L 39.875 -3.15625 C 38.3125 -3.332031 36.78125 -3.421875 35.28125 -3.421875 L 32.9375 -3.421875 L 33.125 -5.046875 C 33.175781 -5.578125 33.203125 -5.992188 33.203125 -6.296875 C 33.203125 -6.535156 33.175781 -6.65625 33.125 -6.65625 C 32.820312 -6.65625 32.007812 -6.265625 30.6875 -5.484375 C 29.007812 -4.523438 27.492188 -3.863281 26.140625 -3.5 C 24.796875 -3.144531 23.375 -2.96875 21.875 -2.96875 C 21.632812 -2.96875 21.394531 -2.96875 21.15625 -2.96875 C 18.445312 -2.96875 16.039062 -3.359375 13.9375 -4.140625 C 11.84375 -4.921875 9.925781 -6.117188 8.1875 -7.734375 C 4.882812 -10.796875 3.085938 -15.269531 2.796875 -21.15625 C 2.734375 -21.8125 2.703125 -22.441406 2.703125 -23.046875 C 2.703125 -28.378906 4.15625 -32.921875 7.0625 -36.671875 C 9.976562 -40.421875 14.222656 -42.566406 19.796875 -43.109375 C 20.160156 -43.109375 20.550781 -43.109375 20.96875 -43.109375 C 22.226562 -43.109375 23.726562 -42.941406 25.46875 -42.609375 C 27.207031 -42.285156 28.976562 -41.671875 30.78125 -40.765625 C 32.394531 -39.984375 33.296875 -39.59375 33.484375 -39.59375 C 33.535156 -39.59375 33.5625 -39.742188 33.5625 -40.046875 C 33.5625 -40.171875 33.5625 -40.351562 33.5625 -40.59375 C 33.5625 -41.132812 33.5625 -42.035156 33.5625 -43.296875 C 33.5625 -44.609375 33.5625 -46.316406 33.5625 -48.421875 Z M 26.375 -32.765625 C 25.351562 -33.117188 24.359375 -33.328125 23.390625 -33.390625 C 22.429688 -33.453125 21.804688 -33.484375 21.515625 -33.484375 C 20.429688 -33.484375 19.53125 -33.363281 18.8125 -33.125 C 16.226562 -32.28125 14.335938 -30.507812 13.140625 -27.8125 C 12.597656 -26.488281 12.328125 -24.789062 12.328125 -22.71875 C 12.328125 -20.65625 12.628906 -18.960938 13.234375 -17.640625 C 14.066406 -15.597656 15.289062 -14.171875 16.90625 -13.359375 C 18.53125 -12.554688 20.1875 -12.15625 21.875 -12.15625 C 22.46875 -12.15625 23.546875 -12.273438 25.109375 -12.515625 C 26.671875 -12.753906 28.59375 -13.648438 30.875 -15.203125 L 32.765625 -16.65625 L 32.9375 -19.078125 C 33.113281 -21.296875 33.203125 -23.273438 33.203125 -25.015625 C 33.203125 -25.253906 33.1875 -25.925781 33.15625 -27.03125 C 33.132812 -28.144531 33.003906 -28.851562 32.765625 -29.15625 C 32.285156 -29.695312 31.367188 -30.328125 30.015625 -31.046875 C 28.660156 -31.765625 27.445312 -32.335938 26.375 -32.765625 Z M 26.375 -32.765625 "/></g></g></g><g fill="#ffffff" fill-opacity="1"><g transform="translate(374.359998, 442.873798)"><g><path d="M 18.8125 -60.296875 C 20.007812 -60.597656 22.316406 -60.75 25.734375 -60.75 L 30.953125 -60.84375 L 30.953125 -51.65625 L 26.375 -51.65625 C 24.09375 -51.65625 22.710938 -51.609375 22.234375 -51.515625 C 21.753906 -51.429688 21.242188 -51.148438 20.703125 -50.671875 C 20.160156 -50.253906 19.828125 -49.816406 19.703125 -49.359375 C 19.585938 -48.910156 19.5 -47.847656 19.4375 -46.171875 L 19.265625 -42.5625 L 31.3125 -42.5625 L 31.3125 -33.390625 L 19.4375 -33.390625 L 19.265625 -27.546875 C 19.078125 -23.816406 18.984375 -19.222656 18.984375 -13.765625 L 18.984375 -3.328125 L 9.8125 -3.328125 L 10.265625 -33.390625 L 0.90625 -33.390625 L 0.90625 -42.5625 L 10.4375 -42.5625 L 10.625 -47.515625 C 10.738281 -50.398438 10.972656 -52.472656 11.328125 -53.734375 C 11.691406 -54.992188 12.445312 -56.222656 13.59375 -57.421875 C 14.375 -58.203125 15.140625 -58.800781 15.890625 -59.21875 C 16.640625 -59.632812 17.613281 -59.992188 18.8125 -60.296875 Z M 18.8125 -60.296875 "/></g></g></g><g fill="#ffffff" fill-opacity="1"><g transform="translate(406.489971, 442.873798)"><g><path d="M 4.6875 -28.078125 L 4.5 -42.5625 L 13.859375 -42.5625 L 13.859375 -30.78125 C 13.859375 -22.914062 13.976562 -18.414062 14.21875 -17.28125 C 14.457031 -16.132812 14.921875 -15.15625 15.609375 -14.34375 C 16.304688 -13.539062 17.132812 -12.988281 18.09375 -12.6875 C 18.8125 -12.507812 19.5625 -12.421875 20.34375 -12.421875 C 21.476562 -12.421875 22.898438 -12.660156 24.609375 -13.140625 C 26.328125 -13.617188 27.84375 -14.488281 29.15625 -15.75 C 29.9375 -16.53125 30.460938 -17.21875 30.734375 -17.8125 C 31.003906 -18.414062 31.195312 -19.253906 31.3125 -20.328125 C 31.4375 -21.410156 31.5 -23.15625 31.5 -25.5625 C 31.5 -29.820312 31.585938 -33.691406 31.765625 -37.171875 L 31.953125 -42.5625 L 41.046875 -42.5625 L 40.859375 -28.078125 C 40.679688 -18.835938 40.59375 -12.238281 40.59375 -8.28125 L 40.59375 -3.15625 L 31.140625 -3.234375 L 31.140625 -7.46875 L 29.609375 -6.296875 C 27.867188 -4.972656 26.035156 -4.070312 24.109375 -3.59375 C 22.191406 -3.113281 20.484375 -2.875 18.984375 -2.875 C 18.148438 -2.875 17.34375 -2.9375 16.5625 -3.0625 C 10.738281 -3.84375 7.078125 -6.570312 5.578125 -11.25 C 5.222656 -12.382812 5 -13.734375 4.90625 -15.296875 C 4.8125 -16.859375 4.738281 -21.117188 4.6875 -28.078125 Z M 4.6875 -28.078125 "/></g></g></g><g fill="#ffffff" fill-opacity="1"><g transform="translate(452.029924, 442.873798)"><g><path d="M 5.578125 -59.9375 L 5.84375 -61.015625 L 14.578125 -61.015625 L 14.578125 -42.203125 C 14.578125 -29.191406 14.488281 -19.535156 14.3125 -13.234375 L 14.125 -3.15625 L 4.953125 -3.15625 L 5.125 -30.953125 C 5.25 -49.617188 5.398438 -59.28125 5.578125 -59.9375 Z M 5.578125 -59.9375 "/></g></g></g><path stroke-linecap="butt" transform="matrix(0.75, 0, 0, 0.75, 470.98198, 352.873802)" fill="none" stroke-linejoin="miter" d="M 63.966738 55.428683 L 63.966738 38.642224 L 76.331322 38.642224 L 76.096947 62.7516 C 75.919864 74.845351 75.716739 86.44431 75.482364 97.558894 L 75.133406 116.04327 L 72.378197 115.808894 C 70.289655 115.558894 68.247989 115.428686 66.253197 115.428686 L 63.11778 115.428686 L 63.352155 113.293269 C 63.43028 112.569311 63.471947 112.001603 63.471947 111.590144 C 63.471947 111.277644 63.43028 111.121394 63.352155 111.121394 C 62.96153 111.121394 61.888613 111.642228 60.133405 112.673478 C 57.883405 113.965144 55.862571 114.855769 54.065696 115.340144 C 52.268821 115.808894 50.367779 116.04327 48.352154 116.04327 C 48.039654 116.04327 47.727154 116.04327 47.414654 116.04327 C 43.805279 116.04327 40.602154 115.527644 37.805279 114.491186 C 35.013612 113.439103 32.45632 111.834936 30.133403 109.689103 C 25.716737 105.605769 23.315695 99.637019 22.92507 91.78806 C 22.846945 90.907852 22.805278 90.06931 22.805278 89.267226 C 22.805278 82.157851 24.742778 76.105767 28.607362 71.105767 C 32.492779 66.105767 38.159446 63.241184 45.602154 62.517225 C 46.086529 62.517225 46.607363 62.517225 47.154238 62.517225 C 48.831321 62.517225 50.836529 62.746392 53.159446 63.194309 C 55.482363 63.621392 57.846947 64.444309 60.247988 65.652642 C 62.39903 66.6891 63.596947 67.204725 63.852155 67.204725 C 63.93028 67.204725 63.966738 67.0016 63.966738 66.590142 C 63.966738 66.433892 63.966738 66.199517 63.966738 65.887017 C 63.966738 65.168267 63.966738 63.965142 63.966738 62.28285 C 63.966738 60.527642 63.966738 58.241183 63.966738 55.428683 Z M 54.357363 76.319309 C 52.99278 75.829726 51.664655 75.548476 50.372988 75.470351 C 49.107363 75.392226 48.274029 75.350559 47.883404 75.350559 C 46.440696 75.350559 45.237571 75.517226 44.279237 75.850559 C 40.841737 76.965143 38.326112 79.314101 36.721945 82.907851 C 35.997987 84.668268 35.638612 86.933893 35.638612 89.704727 C 35.638612 92.459935 36.039654 94.715143 36.841737 96.47556 C 37.951112 99.189102 39.591737 101.095352 41.763612 102.189102 C 43.930279 103.262019 46.128196 103.798477 48.352154 103.798477 C 49.154238 103.798477 50.591738 103.642227 52.659446 103.329727 C 54.747988 102.996394 57.320905 101.798477 60.36778 99.72556 L 62.883405 97.793269 L 63.11778 94.56931 C 63.352155 91.60056 63.471947 88.954726 63.471947 86.63181 C 63.471947 86.31931 63.451113 85.418268 63.414655 83.933893 C 63.372988 82.449518 63.195905 81.512018 62.883405 81.121393 C 62.24278 80.402643 61.018822 79.558893 59.221947 78.605768 C 57.425071 77.647434 55.80528 76.887018 54.357363 76.319309 Z M 118.3157 97.439102 C 118.3157 96.074519 118.274033 95.137018 118.195908 94.626602 C 118.117783 94.10056 117.961533 93.840143 117.727158 93.840143 C 117.649033 93.840143 117.346949 93.855768 116.820908 93.897435 C 116.289658 93.933893 115.570908 93.996393 114.649033 94.074518 C 113.732366 94.152643 112.914658 94.230768 112.190699 94.308893 C 108.909449 94.480768 106.518824 94.767227 105.013616 95.157852 C 102.846949 95.642227 101.195907 96.652644 100.06049 98.173477 C 98.945907 99.678685 98.789657 101.230769 99.59174 102.829727 C 100.550074 104.845352 102.649032 105.829727 105.893824 105.793269 C 109.133407 105.751602 112.471949 104.647436 115.909449 102.480769 L 118.3157 101.043269 Z M 101.175074 64.454725 C 104.044865 63.965142 107.482366 63.798475 111.487574 63.954725 C 116.039658 64.110975 119.492783 64.678684 121.857366 65.652642 C 124.22195 66.610975 126.164658 68.204725 127.6907 70.428684 C 128.800075 72.189101 129.53445 74.512017 129.883408 77.402643 C 130.258408 80.272434 130.518825 85.996393 130.675075 94.56931 C 130.90945 104.491186 131.117784 110.564103 131.289659 112.793269 L 131.524034 115.548478 L 127.805283 115.808894 C 125.8157 116.04327 123.774033 116.241186 121.680283 116.397436 L 119.164658 116.631811 L 119.164658 114.610978 C 119.164658 113.163061 119.122991 112.439103 119.044866 112.439103 C 118.966741 112.439103 117.727158 112.996394 115.326116 114.110978 C 110.362574 116.433895 105.518824 117.277645 100.794865 116.631811 C 97.43549 116.163061 94.74799 115.246394 92.737573 113.876603 C 90.742781 112.512019 89.112573 110.506811 87.846948 107.871394 C 87.357365 106.834936 87.034448 105.918269 86.878198 105.116186 C 86.721948 104.314102 86.643823 103.038061 86.643823 101.277644 C 86.643823 99.60056 86.721948 98.340144 86.878198 97.501602 C 87.034448 96.657852 87.393823 95.642227 87.961531 94.454727 C 88.763615 92.85056 89.857365 91.329727 91.242782 89.88181 C 92.649032 88.439101 94.15424 87.314101 95.753198 86.512018 C 98.565699 85.168268 104.044865 84.090143 112.190699 83.293268 L 118.3157 82.673476 L 118.081325 80.887018 C 117.84695 79.678684 117.482366 78.720351 116.992783 78.017226 C 116.524033 77.293268 115.815699 76.689101 114.857366 76.199518 C 114.211533 75.793267 113.399033 75.548476 112.425074 75.470351 C 111.466741 75.392226 109.669866 75.392226 107.034449 75.470351 C 102.71674 75.470351 99.399032 75.715142 97.070907 76.199518 C 96.445907 76.277643 95.831323 76.355768 95.227157 76.433893 C 94.62299 76.512018 94.175073 76.574518 93.878198 76.610976 C 93.607365 76.652643 93.471948 76.631809 93.471948 76.553684 C 93.471948 76.475559 93.227157 74.881809 92.737573 71.777642 C 92.268823 68.652642 92.034448 66.923475 92.034448 66.590142 C 92.034448 65.965142 95.081323 65.2516 101.175074 64.454725 Z M 145.810493 64.803684 C 149.326118 62.892225 151.16466 61.933892 151.32091 61.933892 C 151.47716 62.012017 153.32091 65.965142 156.857368 73.798476 C 160.451118 81.631809 164.003202 88.78806 167.518827 95.272435 L 171.477161 86.892226 C 174.524036 80.407851 177.003202 74.923476 178.914661 70.428684 C 179.638619 68.517225 180.341744 66.944309 181.024036 65.715142 C 181.711536 64.465142 182.227161 63.584934 182.581328 63.074517 C 182.951119 62.548475 183.211536 62.28285 183.367786 62.28285 C 184.01362 62.517225 185.88862 63.360975 188.992786 64.803684 C 192.117787 66.2516 193.721953 67.090142 193.800078 67.324517 C 193.800078 68.048475 189.695911 76.913059 181.492786 93.923477 C 173.289661 110.918269 168.03966 121.407853 165.732369 125.392228 C 164.680285 127.069312 163.388618 128.73077 161.867785 130.371395 C 160.362577 132.01202 158.925077 133.23077 157.560493 134.032854 C 155.003201 135.402645 151.680285 136.084937 147.596951 136.084937 L 144.227159 136.084937 L 144.227159 123.60577 L 146.279243 123.60577 C 147.570909 123.60577 149.055284 123.319312 150.732368 122.751603 C 152.237576 122.282853 153.466743 121.465145 154.425076 120.29327 C 155.399035 119.142228 156.690701 116.923478 158.28966 113.642228 L 160.430285 108.840144 L 159.492785 107.048477 C 158.690702 105.527644 155.32091 98.642227 149.383409 86.397435 C 143.466742 74.152642 140.508409 67.949517 140.508409 67.793267 C 140.508409 67.480767 142.274034 66.485975 145.810493 64.803684 Z M 213.727163 63.371392 C 215.326121 63.116184 217.122996 62.97035 219.117788 62.928684 C 221.128205 62.892225 222.367788 62.871392 222.836538 62.871392 C 225.805288 62.871392 228.529247 62.996392 231.013622 63.2516 L 235.315705 63.485975 L 235.08133 73.564101 L 225.003205 73.683892 C 220.201121 73.683892 217.232371 73.762017 216.096954 73.918267 C 214.987579 74.074517 214.117788 74.392226 213.492788 74.881809 C 212.534454 75.605767 212.055288 76.522434 212.055288 77.637018 C 212.055288 78.845351 212.576121 79.756809 213.607371 80.360976 C 214.643829 80.949518 216.997996 81.756809 220.669871 82.793268 C 224.20633 83.751601 226.872997 84.715143 228.669872 85.69431 C 230.466747 86.652643 232.008414 87.762018 233.294872 89.032851 C 234.80008 90.637018 235.857372 92.215143 236.461539 93.777643 C 237.065706 95.340143 237.367789 97.360977 237.367789 99.845352 C 237.289664 103.673477 236.430289 106.855769 234.789664 109.392228 C 233.149039 111.913061 230.570914 113.845353 227.055288 115.194311 C 225.846955 115.605769 224.61258 115.871394 223.36258 115.985978 C 222.133413 116.10577 219.841746 116.163061 216.482371 116.163061 C 213.279246 116.163061 210.893829 116.064103 209.331329 115.871394 C 207.789662 115.652644 205.935496 115.314103 203.763621 114.845353 C 200.404245 114.121394 198.727162 113.605769 198.727162 113.293269 C 198.727162 113.038061 199.018829 111.319311 199.60737 108.137019 C 200.211537 104.933894 200.550079 103.241186 200.628204 103.064102 C 200.628204 103.064102 200.680287 103.064102 200.779245 103.064102 C 201.091745 103.064102 202.487579 103.387019 204.966746 104.032852 C 209.846954 104.991186 213.841746 105.470352 216.951121 105.470352 C 217.92508 105.470352 219.466746 105.350561 221.576121 105.116186 C 223.70633 104.881811 224.846955 103.564102 225.003205 101.16306 C 225.003205 100.928685 225.003205 100.720352 225.003205 100.548477 C 225.003205 99.121394 224.419872 98.00681 223.247996 97.204727 C 222.096955 96.407852 219.555288 95.485977 215.628204 94.454727 C 208.440704 92.517227 203.930287 90.235977 202.096954 87.595351 C 200.727162 85.762018 199.966745 84.001601 199.810495 82.324518 C 199.654245 80.642226 199.57612 79.522434 199.57612 78.954726 C 199.57612 76.709934 200.055287 74.548476 201.01362 72.480767 C 201.966745 70.235976 203.596954 68.272434 205.904246 66.590142 C 208.227162 64.913059 210.836538 63.840142 213.727163 63.371392 Z M 213.727163 63.371392 " stroke="#796d3d" stroke-width="9" stroke-opacity="1" stroke-miterlimit="4"/><g fill="#ffffff" fill-opacity="1"><g transform="translate(485.384323, 442.873798)"><g><path d="M 33.5625 -48.421875 L 33.5625 -61.015625 L 42.84375 -61.015625 L 42.65625 -42.9375 C 42.539062 -33.875 42.390625 -25.171875 42.203125 -16.828125 L 41.9375 -2.96875 L 39.875 -3.15625 C 38.3125 -3.332031 36.78125 -3.421875 35.28125 -3.421875 L 32.9375 -3.421875 L 33.125 -5.046875 C 33.175781 -5.578125 33.203125 -5.992188 33.203125 -6.296875 C 33.203125 -6.535156 33.175781 -6.65625 33.125 -6.65625 C 32.820312 -6.65625 32.007812 -6.265625 30.6875 -5.484375 C 29.007812 -4.523438 27.492188 -3.863281 26.140625 -3.5 C 24.796875 -3.144531 23.375 -2.96875 21.875 -2.96875 C 21.632812 -2.96875 21.394531 -2.96875 21.15625 -2.96875 C 18.445312 -2.96875 16.039062 -3.359375 13.9375 -4.140625 C 11.84375 -4.921875 9.925781 -6.117188 8.1875 -7.734375 C 4.882812 -10.796875 3.085938 -15.269531 2.796875 -21.15625 C 2.734375 -21.8125 2.703125 -22.441406 2.703125 -23.046875 C 2.703125 -28.378906 4.15625 -32.921875 7.0625 -36.671875 C 9.976562 -40.421875 14.222656 -42.566406 19.796875 -43.109375 C 20.160156 -43.109375 20.550781 -43.109375 20.96875 -43.109375 C 22.226562 -43.109375 23.726562 -42.941406 25.46875 -42.609375 C 27.207031 -42.285156 28.976562 -41.671875 30.78125 -40.765625 C 32.394531 -39.984375 33.296875 -39.59375 33.484375 -39.59375 C 33.535156 -39.59375 33.5625 -39.742188 33.5625 -40.046875 C 33.5625 -40.171875 33.5625 -40.351562 33.5625 -40.59375 C 33.5625 -41.132812 33.5625 -42.035156 33.5625 -43.296875 C 33.5625 -44.609375 33.5625 -46.316406 33.5625 -48.421875 Z M 26.375 -32.765625 C 25.351562 -33.117188 24.359375 -33.328125 23.390625 -33.390625 C 22.429688 -33.453125 21.804688 -33.484375 21.515625 -33.484375 C 20.429688 -33.484375 19.53125 -33.363281 18.8125 -33.125 C 16.226562 -32.28125 14.335938 -30.507812 13.140625 -27.8125 C 12.597656 -26.488281 12.328125 -24.789062 12.328125 -22.71875 C 12.328125 -20.65625 12.628906 -18.960938 13.234375 -17.640625 C 14.066406 -15.597656 15.289062 -14.171875 16.90625 -13.359375 C 18.53125 -12.554688 20.1875 -12.15625 21.875 -12.15625 C 22.46875 -12.15625 23.546875 -12.273438 25.109375 -12.515625 C 26.671875 -12.753906 28.59375 -13.648438 30.875 -15.203125 L 32.765625 -16.65625 L 32.9375 -19.078125 C 33.113281 -21.296875 33.203125 -23.273438 33.203125 -25.015625 C 33.203125 -25.253906 33.1875 -25.925781 33.15625 -27.03125 C 33.132812 -28.144531 33.003906 -28.851562 32.765625 -29.15625 C 32.285156 -29.695312 31.367188 -30.328125 30.015625 -31.046875 C 28.660156 -31.765625 27.445312 -32.335938 26.375 -32.765625 Z M 26.375 -32.765625 "/></g></g></g><g fill="#ffffff" fill-opacity="1"><g transform="translate(533.174275, 442.873798)"><g><path d="M 26.546875 -16.921875 C 26.546875 -17.941406 26.515625 -18.644531 26.453125 -19.03125 C 26.398438 -19.425781 26.28125 -19.625 26.09375 -19.625 C 26.039062 -19.625 25.816406 -19.609375 25.421875 -19.578125 C 25.035156 -19.546875 24.492188 -19.5 23.796875 -19.4375 C 23.109375 -19.375 22.492188 -19.316406 21.953125 -19.265625 C 19.492188 -19.140625 17.695312 -18.925781 16.5625 -18.625 C 14.9375 -18.269531 13.703125 -17.519531 12.859375 -16.375 C 12.023438 -15.238281 11.910156 -14.070312 12.515625 -12.875 C 13.234375 -11.375 14.804688 -10.632812 17.234375 -10.65625 C 19.660156 -10.6875 22.164062 -11.515625 24.75 -13.140625 L 26.546875 -14.21875 Z M 13.6875 -41.671875 C 15.84375 -42.023438 18.421875 -42.144531 21.421875 -42.03125 C 24.835938 -41.90625 27.429688 -41.484375 29.203125 -40.765625 C 30.972656 -40.046875 32.425781 -38.847656 33.5625 -37.171875 C 34.40625 -35.847656 34.960938 -34.101562 35.234375 -31.9375 C 35.503906 -29.78125 35.695312 -25.492188 35.8125 -19.078125 C 36 -11.640625 36.148438 -7.082031 36.265625 -5.40625 L 36.453125 -3.328125 L 33.65625 -3.15625 C 32.15625 -2.96875 30.625 -2.816406 29.0625 -2.703125 L 27.1875 -2.515625 L 27.1875 -4.046875 C 27.1875 -5.128906 27.15625 -5.671875 27.09375 -5.671875 C 27.03125 -5.671875 26.097656 -5.25 24.296875 -4.40625 C 20.578125 -2.664062 16.945312 -2.035156 13.40625 -2.515625 C 10.882812 -2.878906 8.875 -3.570312 7.375 -4.59375 C 5.875 -5.613281 4.644531 -7.113281 3.6875 -9.09375 C 3.332031 -9.875 3.09375 -10.5625 2.96875 -11.15625 C 2.851562 -11.757812 2.796875 -12.722656 2.796875 -14.046875 C 2.796875 -15.304688 2.851562 -16.25 2.96875 -16.875 C 3.09375 -17.5 3.363281 -18.265625 3.78125 -19.171875 C 4.382812 -20.367188 5.207031 -21.503906 6.25 -22.578125 C 7.300781 -23.660156 8.425781 -24.503906 9.625 -25.109375 C 11.726562 -26.128906 15.835938 -26.941406 21.953125 -27.546875 L 26.546875 -27.984375 L 26.375 -29.34375 C 26.1875 -30.238281 25.910156 -30.957031 25.546875 -31.5 C 25.191406 -32.039062 24.65625 -32.488281 23.9375 -32.84375 C 23.457031 -33.144531 22.859375 -33.328125 22.140625 -33.390625 C 21.421875 -33.453125 20.070312 -33.453125 18.09375 -33.390625 C 14.851562 -33.390625 12.363281 -33.207031 10.625 -32.84375 C 10.144531 -32.789062 9.675781 -32.734375 9.21875 -32.671875 C 8.769531 -32.609375 8.441406 -32.5625 8.234375 -32.53125 C 8.023438 -32.5 7.921875 -32.515625 7.921875 -32.578125 C 7.921875 -32.640625 7.738281 -33.835938 7.375 -36.171875 C 7.019531 -38.515625 6.84375 -39.804688 6.84375 -40.046875 C 6.84375 -40.523438 9.125 -41.066406 13.6875 -41.671875 Z M 13.6875 -41.671875 "/></g></g></g><g fill="#ffffff" fill-opacity="1"><g transform="translate(574.034236, 442.873798)"><g><path d="M 6.296875 -41.40625 C 8.941406 -42.84375 10.320312 -43.5625 10.4375 -43.5625 C 10.5625 -43.5 11.941406 -40.53125 14.578125 -34.65625 C 17.273438 -28.769531 19.945312 -23.398438 22.59375 -18.546875 L 25.5625 -24.84375 C 27.84375 -29.695312 29.703125 -33.804688 31.140625 -37.171875 C 31.679688 -38.609375 32.207031 -39.789062 32.71875 -40.71875 C 33.226562 -41.65625 33.617188 -42.316406 33.890625 -42.703125 C 34.160156 -43.097656 34.351562 -43.296875 34.46875 -43.296875 C 34.945312 -43.109375 36.351562 -42.472656 38.6875 -41.390625 C 41.03125 -40.316406 42.234375 -39.691406 42.296875 -39.515625 C 42.296875 -38.972656 39.21875 -32.328125 33.0625 -19.578125 C 26.914062 -6.828125 22.972656 1.046875 21.234375 4.046875 C 20.453125 5.304688 19.492188 6.550781 18.359375 7.78125 C 17.222656 9.007812 16.144531 9.925781 15.125 10.53125 C 13.195312 11.550781 10.707031 12.0625 7.65625 12.0625 L 5.125 12.0625 L 5.125 2.703125 L 6.65625 2.703125 C 7.613281 2.703125 8.722656 2.488281 9.984375 2.0625 C 11.128906 1.707031 12.0625 1.09375 12.78125 0.21875 C 13.5 -0.644531 14.457031 -2.304688 15.65625 -4.765625 L 17.28125 -8.375 L 16.5625 -9.71875 C 15.957031 -10.863281 13.4375 -16.023438 9 -25.203125 C 4.5625 -34.378906 2.34375 -39.03125 2.34375 -39.15625 C 2.34375 -39.394531 3.660156 -40.144531 6.296875 -41.40625 Z M 6.296875 -41.40625 "/></g></g></g><g fill="#ffffff" fill-opacity="1"><g transform="translate(617.324189, 442.873798)"><g><path d="M 13.953125 -42.484375 C 15.148438 -42.660156 16.5 -42.765625 18 -42.796875 C 19.5 -42.828125 20.429688 -42.84375 20.796875 -42.84375 C 23.015625 -42.84375 25.050781 -42.75 26.90625 -42.5625 L 30.15625 -42.390625 L 29.96875 -34.828125 L 22.40625 -34.734375 C 18.8125 -34.734375 16.59375 -34.671875 15.75 -34.546875 C 14.90625 -34.429688 14.242188 -34.195312 13.765625 -33.84375 C 13.046875 -33.300781 12.6875 -32.609375 12.6875 -31.765625 C 12.6875 -30.867188 13.078125 -30.191406 13.859375 -29.734375 C 14.640625 -29.285156 16.410156 -28.675781 19.171875 -27.90625 C 21.804688 -27.175781 23.800781 -26.453125 25.15625 -25.734375 C 26.507812 -25.015625 27.664062 -24.175781 28.625 -23.21875 C 29.757812 -22.019531 30.550781 -20.832031 31 -19.65625 C 31.457031 -18.488281 31.6875 -16.976562 31.6875 -15.125 C 31.625 -12.238281 30.976562 -9.847656 29.75 -7.953125 C 28.519531 -6.066406 26.582031 -4.613281 23.9375 -3.59375 C 23.039062 -3.300781 22.125 -3.109375 21.1875 -3.015625 C 20.257812 -2.921875 18.535156 -2.875 16.015625 -2.875 C 13.617188 -2.875 11.832031 -2.945312 10.65625 -3.09375 C 9.488281 -3.25 8.097656 -3.507812 6.484375 -3.875 C 3.960938 -4.414062 2.703125 -4.804688 2.703125 -5.046875 C 2.703125 -5.222656 2.925781 -6.507812 3.375 -8.90625 C 3.820312 -11.3125 4.078125 -12.570312 4.140625 -12.6875 C 4.140625 -12.6875 4.171875 -12.6875 4.234375 -12.6875 C 4.472656 -12.6875 5.519531 -12.445312 7.375 -11.96875 C 11.039062 -11.25 14.039062 -10.890625 16.375 -10.890625 C 17.09375 -10.890625 18.25 -10.976562 19.84375 -11.15625 C 21.4375 -11.34375 22.289062 -12.332031 22.40625 -14.125 C 22.40625 -14.3125 22.40625 -14.460938 22.40625 -14.578125 C 22.40625 -15.660156 21.96875 -16.5 21.09375 -17.09375 C 20.226562 -17.695312 18.328125 -18.390625 15.390625 -19.171875 C 9.992188 -20.609375 6.601562 -22.316406 5.21875 -24.296875 C 4.195312 -25.679688 3.625 -27.003906 3.5 -28.265625 C 3.382812 -29.523438 3.328125 -30.363281 3.328125 -30.78125 C 3.328125 -32.457031 3.6875 -34.078125 4.40625 -35.640625 C 5.125 -37.316406 6.351562 -38.785156 8.09375 -40.046875 C 9.832031 -41.304688 11.785156 -42.117188 13.953125 -42.484375 Z M 13.953125 -42.484375 "/></g></g></g></svg>
