<svg xmlns="http://www.w3.org/2000/svg" zoomAndPan="magnify" viewBox="-3 0 104 104" preserveAspectRatio="xMidYMid meet" xmlns:v="https://vecta.io/nano"><defs><clipPath id="A"><path d="M0 1h46v42H0zm0 0" clip-rule="nonzero"/></clipPath><clipPath id="B"><path d="M0 18.98L43.285.039l14.434 32.98-43.285 18.941zm0 0" clip-rule="nonzero"/></clipPath><clipPath id="C"><path d="M0 18.98L43.285.039l14.434 32.98-43.285 18.941zm0 0" clip-rule="nonzero"/></clipPath></defs><g fill="#fff"><path d="M-81-81h972v972H-81z"/><path d="M-81-81h972v972H-81z"/></g><g clip-path="url(#A)"><g clip-path="url(#B)"><g clip-path="url(#C)"><path fill="#589979" d="M41.715 1.348c-2.074.293-4.738 1.785-5.645 2.297-3.582 2.02-6.004 5.598-7.648 9.277-.566 1.27-1.059 2.574-1.555 3.879-.156.41-.727 3.922-.199 4.262-1.25-.805-3.035-2.152-3.953-2.879-1.922-1.578-4.215-2.047-6.574-2.316-1.598-.187-3.219-.164-4.82-.199-2.145-.027-4.09.781-5.977 1.605-1.453.637-2.754 1.613-4.102 2.484-.543.336-.527.836-.219 1.297.781 1.137 1.535 2.273 2.406 3.348 2.578 3.141 5.66 5.555 9.492 7.086 2.082.832 4.215 1.082 6.316 1.445 3.551.613 7.02-.086 10.363-1.301.84-.305 1.211-.074 1.617.688.863 1.652 3.152 7.855.609 9.07.477-.211 2.168 2.051 2.441.063.34-2.883.426-5.723-1.074-8.367-.422-.738-.687-1.543-1.02-2.301.66-.418 1.207-.699 1.703-1.074 1.621-1.227 3.449-2.312 4.801-3.801 2.395-2.695 4.422-5.703 5.434-9.242.465-1.59.699-3.273.887-4.937.398-3.074-.07-6.109-.758-9.082-.281-1.199-1.301-1.469-2.527-1.301zM28.84 26.883l.992 2.27c.234.535.086.883-.473 1.051-2.652.859-5.34 1.418-8.168 1.102-.766-.09-1.578.066-2.352-.082-1.879-.344-3.777-.641-5.594-1.246-1.176-.375-2.273-1.164-3.312-1.891-2.598-1.816-4.879-3.992-6.781-6.52-.496-.684-.457-1.23.469-1.598 1.801-.719 3.512-1.66 5.348-2.254 1.191-.402 2.547-.516 3.797-.391 2.359.23 4.762.246 7.055 1.207 3.215 1.363 5.703 3.52 7.973 6.027.547.598.723 1.559 1.059 2.32zM42.891 4.039a14.27 14.27 0 0 1 .336 2.535c.133 2.258.48 4.523-.039 6.766-.312 1.313-.402 2.738-.941 3.93-.805 1.785-1.82 3.484-2.957 5.105-.879 1.285-2.027 2.391-3.129 3.535-1.32 1.422-2.93 2.484-4.836 3.355-1.262-2.781-2.789-5.426-2.602-8.43.141-2.32.234-4.664 1.301-6.895 1.473-3.141 3.371-5.957 6.133-8.004 1.648-1.238 3.715-1.941 5.617-2.816.922-.445.996.414 1.117.918zm0 0"/></g></g></g><path fill="none" d="M35.688 43.27l4.066-.902c.234 0 1.039 3.684 2.414 11.051l2.836 15.449 2.109 10.215c.543 2.332.852 3.496.922 3.496.176-.176 1.34-4.016 3.496-11.516l4.68-16.918c1.023-3.957 1.598-5.992 1.715-6.109.117-.133 1.703-.227 4.766-.285l4.77-.086 3.777 14.324 4.68 17.82 1.078 3.668.551-3.141c.305-1.203 1.477-6.988 3.516-17.359l3.359-16.961c.398-2.082.684-3.238.859-3.473h.195c.41 0 1.934.316 4.57.945 2.652.629 4.066 1.031 4.242 1.207 0 .367-1.145 5.949-3.43 16.742l-5.492 25.93-2.242 10.789-.352 1.449h-9.73l-3.691-12.152-5.035-17.113c-.832-3.238-1.348-4.977-1.535-5.211-.059 0-.344.719-.859 2.156-.496 1.434-1.172 3.492-2.02 6.172l-2.793 8.77-5.293 17.379h-9.734l-.352-1.449c-.426-1.742-1.555-6.945-3.383-15.602l-4.551-22.105-3.055-14.676c-.059-.352-.086-.625-.086-.813a.81.81 0 0 1 .043-.223c.031-.086.199-.187.508-.305.527-.176 2.02-.566 4.48-1.164zm0 0" stroke="#796d3d" stroke-width="6.75"/><path d="M35.698 43.264l4.047-.906c.238 0 1.051 3.695 2.438 11.078l2.828 15.422 2.109 10.219c.539 2.344.844 3.516.906 3.516.176-.187 1.344-4.031 3.5-11.531l4.688-16.906c1.02-3.969 1.594-6.008 1.719-6.125.113-.125 1.703-.211 4.766-.266l4.766-.094 3.781 14.313 4.688 17.813 1.078 3.688.531-3.141c.301-1.195 1.473-6.988 3.516-17.375l3.375-16.953c.383-2.07.672-3.227.859-3.469h.172c.426 0 1.957.32 4.594.953 2.633.625 4.047 1.027 4.234 1.203 0 .355-1.141 5.934-3.422 16.734l-5.5 25.922-2.25 10.797-.359 1.438h-9.719l-3.687-12.141-5.031-17.109c-.844-3.238-1.355-4.977-1.531-5.219-.062 0-.352.727-.859 2.172-.512 1.438-1.187 3.492-2.031 6.156l-2.781 8.781-5.312 17.359h-9.719l-.359-1.437c-.418-1.738-1.543-6.941-3.375-15.609l-4.547-22.094-3.062-14.672c-.062-.363-.094-.633-.094-.812a.65.65 0 0 1 .047-.219c.031-.094.195-.195.5-.312.539-.187 2.039-.578 4.5-1.172zm0 0" fill="#f2e6b6"/></svg>